<mxfile host="app.diagrams.net" agent="Mozilla/5.0 (Windows NT 10.0; Win64; x64) AppleWebKit/537.36 (KHTML, like Gecko) Chrome/129.0.0.0 Safari/537.36" version="24.7.17">
  <diagram id="l8hXMBHkgcEJcSW0mbfh" name="Page-1">
    <mxGraphModel dx="1013" dy="682" grid="1" gridSize="10" guides="1" tooltips="1" connect="1" arrows="1" fold="1" page="1" pageScale="1" pageWidth="1169" pageHeight="827" math="0" shadow="0">
      <root>
        <mxCell id="0" />
        <mxCell id="1" parent="0" />
        <mxCell id="QlMrqEwmd5EdoFTJDpi8-33" style="edgeStyle=orthogonalEdgeStyle;rounded=0;orthogonalLoop=1;jettySize=auto;html=1;entryX=0;entryY=0;entryDx=0;entryDy=0;" edge="1" parent="1" source="QlMrqEwmd5EdoFTJDpi8-7" target="vN4Nr_NYxk7D2PVNXBaq-4">
          <mxGeometry relative="1" as="geometry">
            <Array as="points">
              <mxPoint x="534" y="310" />
            </Array>
          </mxGeometry>
        </mxCell>
        <mxCell id="QlMrqEwmd5EdoFTJDpi8-7" value="VLAN 20 - LAN-VM" style="whiteSpace=wrap;html=1;aspect=fixed;fillColor=none;strokeColor=#b85450;glass=0;rounded=0;fillStyle=hatch;" vertex="1" parent="1">
          <mxGeometry x="70" y="179" width="190" height="190" as="geometry" />
        </mxCell>
        <mxCell id="QlMrqEwmd5EdoFTJDpi8-34" style="edgeStyle=orthogonalEdgeStyle;rounded=0;orthogonalLoop=1;jettySize=auto;html=1;exitX=0;exitY=0;exitDx=0;exitDy=0;" edge="1" parent="1" source="QlMrqEwmd5EdoFTJDpi8-25" target="QlMrqEwmd5EdoFTJDpi8-7">
          <mxGeometry relative="1" as="geometry" />
        </mxCell>
        <mxCell id="QlMrqEwmd5EdoFTJDpi8-35" style="edgeStyle=orthogonalEdgeStyle;rounded=0;orthogonalLoop=1;jettySize=auto;html=1;exitX=1;exitY=1;exitDx=0;exitDy=0;entryX=0;entryY=0.75;entryDx=0;entryDy=0;" edge="1" parent="1" source="QlMrqEwmd5EdoFTJDpi8-25" target="QlMrqEwmd5EdoFTJDpi8-21">
          <mxGeometry relative="1" as="geometry">
            <Array as="points">
              <mxPoint x="480" y="713" />
            </Array>
          </mxGeometry>
        </mxCell>
        <mxCell id="QlMrqEwmd5EdoFTJDpi8-36" style="edgeStyle=orthogonalEdgeStyle;rounded=0;orthogonalLoop=1;jettySize=auto;html=1;exitX=0.75;exitY=1;exitDx=0;exitDy=0;entryX=0.75;entryY=1;entryDx=0;entryDy=0;" edge="1" parent="1" source="QlMrqEwmd5EdoFTJDpi8-25" target="QlMrqEwmd5EdoFTJDpi8-22">
          <mxGeometry relative="1" as="geometry">
            <Array as="points">
              <mxPoint x="383" y="800" />
              <mxPoint x="1091" y="800" />
            </Array>
          </mxGeometry>
        </mxCell>
        <mxCell id="QlMrqEwmd5EdoFTJDpi8-25" value="VLAN 10 - LAN" style="rounded=0;whiteSpace=wrap;html=1;fillColor=#f8cecc;strokeColor=#b85450;" vertex="1" parent="1">
          <mxGeometry x="90" y="600" width="390" height="150" as="geometry" />
        </mxCell>
        <mxCell id="vN4Nr_NYxk7D2PVNXBaq-14" value="" style="rounded=1;whiteSpace=wrap;html=1;" parent="1" vertex="1">
          <mxGeometry x="910" y="20" width="250" height="360" as="geometry" />
        </mxCell>
        <mxCell id="8--HhbSZYtI3ddgJnD71-31" style="edgeStyle=none;rounded=0;orthogonalLoop=1;jettySize=auto;html=1;sourcePerimeterSpacing=5;endArrow=none;endFill=0;targetPerimeterSpacing=5;entryX=0.5;entryY=0;entryDx=0;entryDy=0;" parent="1" source="8--HhbSZYtI3ddgJnD71-11" target="vN4Nr_NYxk7D2PVNXBaq-3" edge="1">
          <mxGeometry relative="1" as="geometry">
            <mxPoint x="583.8442028985507" y="361" as="targetPoint" />
          </mxGeometry>
        </mxCell>
        <mxCell id="vN4Nr_NYxk7D2PVNXBaq-12" value="WAN" style="edgeLabel;html=1;align=center;verticalAlign=middle;resizable=0;points=[];" parent="8--HhbSZYtI3ddgJnD71-31" vertex="1" connectable="0">
          <mxGeometry x="0.1193" relative="1" as="geometry">
            <mxPoint as="offset" />
          </mxGeometry>
        </mxCell>
        <mxCell id="8--HhbSZYtI3ddgJnD71-2" value="Mobile" style="shape=image;verticalLabelPosition=bottom;verticalAlign=top;imageAspect=0;aspect=fixed;image=data:image/svg+xml,PHN2ZyB4bWxucz0iaHR0cDovL3d3dy53My5vcmcvMjAwMC9zdmciIHZlcnNpb249IjEiIHZpZXdCb3g9IjAgMCA0OCA0OCIgZW5hYmxlLWJhY2tncm91bmQ9Im5ldyAwIDAgNDggNDgiPiYjeGE7ICAgIDxwYXRoIGZpbGw9IiMzNzQ3NEYiIGQ9Ik00LDM5VjdjMC0yLjIsMS44LTQsNC00aDIyYzIuMiwwLDQsMS44LDQsNHYzMmMwLDIuMi0xLjgsNC00LDRIOEM1LjgsNDMsNCw0MS4yLDQsMzl6Ii8+JiN4YTsgICAgPHBhdGggZmlsbD0iI0JCREVGQiIgZD0iTTMwLDZIOEM3LjQsNiw3LDYuNCw3LDd2MjljMCwwLjYsMC40LDEsMSwxaDIyYzAuNiwwLDEtMC40LDEtMVY3QzMxLDYuNCwzMC42LDYsMzAsNnoiLz4mI3hhOyAgICA8cmVjdCB4PSIxNSIgeT0iMzkiIGZpbGw9IiM3ODkwOUMiIHdpZHRoPSI2IiBoZWlnaHQ9IjIiLz4mI3hhOyAgICA8cGF0aCBmaWxsPSIjRTM4OTM5IiBkPSJNMjQsNDFWMTdjMC0yLjIsMS44LTQsNC00aDEyYzIuMiwwLDQsMS44LDQsNHYyNGMwLDIuMi0xLjgsNC00LDRIMjhDMjUuOCw0NSwyNCw0My4yLDI0LDQxeiIvPiYjeGE7ICAgIDxwYXRoIGZpbGw9IiNGRkYzRTAiIGQ9Ik00MCwxNkgyOGMtMC42LDAtMSwwLjQtMSwxdjIyYzAsMC42LDAuNCwxLDEsMWgxMmMwLjYsMCwxLTAuNCwxLTFWMTdDNDEsMTYuNCw0MC42LDE2LDQwLDE2eiIvPiYjeGE7ICAgIDxjaXJjbGUgZmlsbD0iI0E2NjQyQSIgY3g9IjM0IiBjeT0iNDIuNSIgcj0iMS41Ii8+JiN4YTs8L3N2Zz4=;labelBackgroundColor=#ffffff;" parent="1" vertex="1">
          <mxGeometry x="421" y="690" width="48" height="48" as="geometry" />
        </mxCell>
        <mxCell id="8--HhbSZYtI3ddgJnD71-11" value="ISP Free" style="shape=image;verticalLabelPosition=bottom;verticalAlign=top;imageAspect=0;aspect=fixed;image=data:image/svg+xml,PHN2ZyB4bWxucz0iaHR0cDovL3d3dy53My5vcmcvMjAwMC9zdmciIHZlcnNpb249IjEiIHZpZXdCb3g9IjAgMCA0OCA0OCIgZW5hYmxlLWJhY2tncm91bmQ9Im5ldyAwIDAgNDggNDgiPiYjeGE7ICAgIDxwYXRoIGZpbGw9IiM3Q0IzNDIiIGQ9Ik0yNCw0QzEzLDQsNCwxMyw0LDI0czksMjAsMjAsMjBzMjAtOSwyMC0yMFMzNSw0LDI0LDR6Ii8+JiN4YTsgICAgPHBhdGggZmlsbD0iIzAyNzdCRCIgZD0iTTQ1LDI0YzAsMTEuNy05LjUsMjEtMjEsMjFTMywzNS43LDMsMjRTMTIuMywzLDI0LDNTNDUsMTIuMyw0NSwyNHogTTIzLjgsMzMuN2MwLTAuNC0wLjItMC42LTAuNi0wLjggYy0xLjMtMC40LTIuNS0wLjQtMy42LTEuNWMtMC4yLTAuNC0wLjItMC44LTAuNC0xLjNjLTAuNC0wLjQtMS41LTAuNi0yLjEtMC44Yy0wLjgsMC0xLjcsMC0yLjcsMGMtMC40LDAtMS4xLDAtMS41LDAgYy0wLjYtMC4yLTEuMS0xLjEtMS41LTEuN2MwLTAuMiwwLTAuNi0wLjQtMC42Yy0wLjQtMC4yLTAuOCwwLjItMS4zLDBjLTAuMi0wLjItMC4yLTAuNC0wLjItMC42YzAtMC42LDAuNC0xLjMsMC44LTEuNyBjMC42LTAuNCwxLjMsMC4yLDEuOSwwLjJjMC4yLDAsMC4yLDAsMC40LDAuMmMwLjYsMC4yLDAuOCwxLDAuOCwxLjdjMCwwLjIsMCwwLjQsMCwwLjRjMCwwLjIsMC4yLDAuMiwwLjQsMC4yIGMwLjItMS4xLDAuMi0yLjEsMC40LTMuMmMwLTEuMywxLjMtMi41LDIuMy0yLjljMC40LTAuMiwwLjYsMC4yLDEuMSwwYzEuMy0wLjQsNC40LTEuNywzLjgtMy40Yy0wLjQtMS41LTEuNy0yLjktMy40LTIuNyBjLTAuNCwwLjItMC42LDAuNC0xLDAuNmMtMC42LDAuNC0xLjksMS43LTIuNSwxLjdjLTEuMS0wLjItMS4xLTEuNy0wLjgtMi4zYzAuMi0wLjgsMi4xLTMuNiwzLjQtMy4xYzAuMiwwLjIsMC42LDAuNiwwLjgsMC44IGMwLjQsMC4yLDEuMSwwLjIsMS43LDAuMmMwLjIsMCwwLjQsMCwwLjYtMC4yYzAuMi0wLjIsMC4yLTAuMiwwLjItMC40YzAtMC42LTAuNi0xLjMtMS0xLjdjLTAuNC0wLjQtMS4xLTAuOC0xLjctMS4xIGMtMi4xLTAuNi01LjUsMC4yLTcuMSwxLjdzLTIuOSw0LTMuOCw2LjFjLTAuNCwxLjMtMC44LDIuOS0xLDQuNGMtMC4yLDEtMC40LDEuOSwwLjIsMi45YzAuNiwxLjMsMS45LDIuNSwzLjIsMy40IGMwLjgsMC42LDIuNSwwLjYsMy40LDEuN2MwLjYsMC44LDAuNCwxLjksMC40LDIuOWMwLDEuMywwLjgsMi4zLDEuMywzLjRjMC4yLDAuNiwwLjQsMS41LDAuNiwyLjFjMCwwLjIsMC4yLDEuNSwwLjIsMS43IGMxLjMsMC42LDIuMywxLjMsMy44LDEuN2MwLjIsMCwxLTEuMywxLTEuNWMwLjYtMC42LDEuMS0xLjUsMS43LTEuOWMwLjQtMC4yLDAuOC0wLjQsMS4zLTAuOGMwLjQtMC40LDAuNi0xLjMsMC44LTEuOSBDMjMuOCwzNS4xLDI0LDM0LjMsMjMuOCwzMy43eiBNMjQuMiwxNC4zYzAuMiwwLDAuNC0wLjIsMC44LTAuNGMwLjYtMC40LDEuMy0xLjEsMS45LTEuNWMwLjYtMC40LDEuMy0xLjEsMS43LTEuNSBjMC42LTAuNCwxLjEtMS4zLDEuMy0xLjljMC4yLTAuNCwwLjgtMS4zLDAuNi0xLjljLTAuMi0wLjQtMS4zLTAuNi0xLjctMC44Yy0xLjctMC40LTMuMS0wLjYtNC44LTAuNmMtMC42LDAtMS41LDAuMi0xLjcsMC44IGMtMC4yLDEuMSwwLjYsMC44LDEuNSwxLjFjMCwwLDAuMiwxLjcsMC4yLDEuOWMwLjIsMS0wLjQsMS43LTAuNCwyLjdjMCwwLjYsMCwxLjcsMC40LDIuMUwyNC4yLDE0LjN6IE00MS44LDI5IGMwLjItMC40LDAuMi0xLjEsMC40LTEuNWMwLjItMSwwLjItMi4xLDAuMi0zLjFjMC0yLjEtMC4yLTQuMi0wLjgtNi4xYy0wLjQtMC42LTAuNi0xLjMtMC44LTEuOWMtMC40LTEuMS0xLTIuMS0xLjktMi45IGMtMC44LTEuMS0xLjktNC0zLjgtMy4xYy0wLjYsMC4yLTEsMS0xLjUsMS41Yy0wLjQsMC42LTAuOCwxLjMtMS4zLDEuOWMtMC4yLDAuMi0wLjQsMC42LTAuMiwwLjhjMCwwLjIsMC4yLDAuMiwwLjQsMC4yIGMwLjQsMC4yLDAuNiwwLjIsMSwwLjRjMC4yLDAsMC40LDAuMiwwLjIsMC40YzAsMCwwLDAuMi0wLjIsMC4yYy0xLDEuMS0yLjEsMS45LTMuMSwyLjljLTAuMiwwLjItMC40LDAuNi0wLjQsMC44IGMwLDAuMiwwLjIsMC4yLDAuMiwwLjRjMCwwLjItMC4yLDAuMi0wLjQsMC40Yy0wLjQsMC4yLTAuOCwwLjQtMS4xLDAuNmMtMC4yLDAuNCwwLDEuMS0wLjIsMS41Yy0wLjIsMS4xLTAuOCwxLjktMS4zLDIuOSBjLTAuNCwwLjYtMC42LDEuMy0xLDEuOWMwLDAuOC0wLjIsMS41LDAuMiwyLjFjMSwxLjUsMi45LDAuNiw0LjQsMS4zYzAuNCwwLjIsMC44LDAuMiwxLjEsMC42YzAuNiwwLjYsMC42LDEuNywwLjgsMi4zIGMwLjIsMC44LDAuNCwxLjcsMC44LDIuNWMwLjIsMSwwLjYsMi4xLDAuOCwyLjljMS45LTEuNSwzLjYtMy4xLDQuOC01LjJDNDAuNiwzMi40LDQxLjIsMzAuNyw0MS44LDI5eiIvPiYjeGE7PC9zdmc+;labelBackgroundColor=#ffffff;" parent="1" vertex="1">
          <mxGeometry x="550" y="90" width="48" height="48" as="geometry" />
        </mxCell>
        <mxCell id="vN4Nr_NYxk7D2PVNXBaq-10" style="edgeStyle=orthogonalEdgeStyle;rounded=0;orthogonalLoop=1;jettySize=auto;html=1;exitX=0.5;exitY=1;exitDx=0;exitDy=0;endArrow=none;endFill=0;" parent="1" source="vN4Nr_NYxk7D2PVNXBaq-3" target="vN4Nr_NYxk7D2PVNXBaq-4" edge="1">
          <mxGeometry relative="1" as="geometry" />
        </mxCell>
        <mxCell id="vN4Nr_NYxk7D2PVNXBaq-11" value="1GB /s&lt;br&gt;Port 1" style="edgeLabel;html=1;align=center;verticalAlign=middle;resizable=0;points=[];" parent="vN4Nr_NYxk7D2PVNXBaq-10" vertex="1" connectable="0">
          <mxGeometry x="-0.1929" y="1" relative="1" as="geometry">
            <mxPoint as="offset" />
          </mxGeometry>
        </mxCell>
        <mxCell id="vN4Nr_NYxk7D2PVNXBaq-3" value="" style="image;html=1;image=img/lib/clip_art/networking/Router_128x128.png" parent="1" vertex="1">
          <mxGeometry x="534" y="240" width="80" height="80" as="geometry" />
        </mxCell>
        <mxCell id="vN4Nr_NYxk7D2PVNXBaq-4" value="" style="image;html=1;image=img/lib/clip_art/networking/Switch_128x128.png" parent="1" vertex="1">
          <mxGeometry x="534" y="360" width="80" height="80" as="geometry" />
        </mxCell>
        <mxCell id="vN4Nr_NYxk7D2PVNXBaq-6" value="" style="html=1;verticalLabelPosition=bottom;align=center;labelBackgroundColor=#ffffff;verticalAlign=top;strokeWidth=2;strokeColor=#0080F0;shadow=0;dashed=0;shape=mxgraph.ios7.icons.wifi;pointerEvents=1" parent="1" vertex="1">
          <mxGeometry x="430" y="617.5" width="30" height="21" as="geometry" />
        </mxCell>
        <mxCell id="vN4Nr_NYxk7D2PVNXBaq-7" value="" style="image;aspect=fixed;perimeter=ellipsePerimeter;html=1;align=center;shadow=0;dashed=0;spacingTop=3;image=img/lib/active_directory/home.svg;" parent="1" vertex="1">
          <mxGeometry x="240" y="750" width="57.99" height="56.25" as="geometry" />
        </mxCell>
        <mxCell id="vN4Nr_NYxk7D2PVNXBaq-13" value="" style="shape=image;verticalLabelPosition=bottom;verticalAlign=top;imageAspect=0;aspect=fixed;image=data:image/svg+xml,PHN2ZyB4bWxucz0iaHR0cDovL3d3dy53My5vcmcvMjAwMC9zdmciIHZlcnNpb249IjEiIHZpZXdCb3g9IjAgMCA0OCA0OCIgZW5hYmxlLWJhY2tncm91bmQ9Im5ldyAwIDAgNDggNDgiPiYjeGE7ICAgIDxwYXRoIGZpbGw9IiMyMTk2RjMiIGQ9Ik0zNyw0MEgxMWwtNiw2VjEyYzAtMy4zLDIuNy02LDYtNmgyNmMzLjMsMCw2LDIuNyw2LDZ2MjJDNDMsMzcuMyw0MC4zLDQwLDM3LDQweiIvPiYjeGE7ICAgIDxnIGZpbGw9IiNmZmYiPiYjeGE7ICAgICAgICA8cmVjdCB4PSIyMiIgeT0iMjAiIHdpZHRoPSI0IiBoZWlnaHQ9IjExIi8+JiN4YTsgICAgICAgIDxjaXJjbGUgY3g9IjI0IiBjeT0iMTUiIHI9IjIiLz4mI3hhOyAgICA8L2c+JiN4YTs8L3N2Zz4=;" parent="1" vertex="1">
          <mxGeometry x="900" width="48" height="48" as="geometry" />
        </mxCell>
        <mxCell id="vN4Nr_NYxk7D2PVNXBaq-15" value="VLAN 20 | 192.168.17.0 /24 (SERVER)" style="text;html=1;align=center;verticalAlign=middle;resizable=0;points=[];autosize=1;strokeColor=none;fillColor=none;" parent="1" vertex="1">
          <mxGeometry x="915" y="76" width="230" height="30" as="geometry" />
        </mxCell>
        <mxCell id="vN4Nr_NYxk7D2PVNXBaq-16" value="VLAN 30| 192.168.18.0 /24 (IOT-MEDIA)" style="text;html=1;align=center;verticalAlign=middle;resizable=0;points=[];autosize=1;strokeColor=none;fillColor=none;" parent="1" vertex="1">
          <mxGeometry x="915" y="106" width="240" height="30" as="geometry" />
        </mxCell>
        <mxCell id="vN4Nr_NYxk7D2PVNXBaq-17" value="VLAN 1 | 192.168.30.0 /24&amp;nbsp; (LAN)" style="text;html=1;align=center;verticalAlign=middle;resizable=0;points=[];autosize=1;strokeColor=none;fillColor=none;" parent="1" vertex="1">
          <mxGeometry x="920" y="48" width="200" height="30" as="geometry" />
        </mxCell>
        <mxCell id="vN4Nr_NYxk7D2PVNXBaq-18" value="VLAN 40| 192.168.19.0 /24 (GUEST)" style="text;html=1;align=center;verticalAlign=middle;resizable=0;points=[];autosize=1;strokeColor=none;fillColor=none;" parent="1" vertex="1">
          <mxGeometry x="915" y="138" width="220" height="30" as="geometry" />
        </mxCell>
        <mxCell id="vN4Nr_NYxk7D2PVNXBaq-21" value="MGMT -&amp;gt; ALL" style="text;html=1;align=center;verticalAlign=middle;resizable=0;points=[];autosize=1;strokeColor=none;fillColor=none;" parent="1" vertex="1">
          <mxGeometry x="910" y="199" width="100" height="30" as="geometry" />
        </mxCell>
        <mxCell id="vN4Nr_NYxk7D2PVNXBaq-22" value="SERVER -&amp;gt; IOT + CCTV + INET" style="text;html=1;align=center;verticalAlign=middle;resizable=0;points=[];autosize=1;strokeColor=none;fillColor=none;" parent="1" vertex="1">
          <mxGeometry x="910" y="229" width="200" height="30" as="geometry" />
        </mxCell>
        <mxCell id="vN4Nr_NYxk7D2PVNXBaq-23" value="IOT -&amp;gt; INET" style="text;html=1;align=center;verticalAlign=middle;resizable=0;points=[];autosize=1;strokeColor=none;fillColor=none;" parent="1" vertex="1">
          <mxGeometry x="910" y="259" width="90" height="30" as="geometry" />
        </mxCell>
        <mxCell id="vN4Nr_NYxk7D2PVNXBaq-24" value="GUEST -&amp;gt; INET" style="text;html=1;align=center;verticalAlign=middle;resizable=0;points=[];autosize=1;strokeColor=none;fillColor=none;" parent="1" vertex="1">
          <mxGeometry x="910" y="290" width="110" height="30" as="geometry" />
        </mxCell>
        <mxCell id="vN4Nr_NYxk7D2PVNXBaq-25" value="CCTV -&amp;gt; INET" style="text;html=1;align=center;verticalAlign=middle;resizable=0;points=[];autosize=1;strokeColor=none;fillColor=none;" parent="1" vertex="1">
          <mxGeometry x="910" y="320" width="100" height="30" as="geometry" />
        </mxCell>
        <mxCell id="vN4Nr_NYxk7D2PVNXBaq-26" value="NAS" style="shape=image;verticalLabelPosition=bottom;verticalAlign=top;imageAspect=0;aspect=fixed;image=data:image/svg+xml,PHN2ZyB4bWxucz0iaHR0cDovL3d3dy53My5vcmcvMjAwMC9zdmciIHZlcnNpb249IjEiIHZpZXdCb3g9IjAgMCA0OCA0OCIgZW5hYmxlLWJhY2tncm91bmQ9Im5ldyAwIDAgNDggNDgiPiYjeGE7ICAgIDxyZWN0IHg9IjEyIiB5PSI0NCIgZmlsbD0iIzI2MzIzOCIgd2lkdGg9IjQiIGhlaWdodD0iMiIvPiYjeGE7ICAgIDxyZWN0IHg9IjMyIiB5PSI0NCIgZmlsbD0iIzI2MzIzOCIgd2lkdGg9IjQiIGhlaWdodD0iMiIvPiYjeGE7ICAgIDxwYXRoIGZpbGw9IiM2MDdEOEIiIGQ9Ik04LDQxVjdjMC0yLjIsMS44LTQsNC00aDI0YzIuMiwwLDQsMS44LDQsNHYzNGMwLDIuMi0xLjgsNC00LDRIMTJDOS44LDQ1LDgsNDMuMiw4LDQxeiIvPiYjeGE7ICAgIDxwYXRoIGZpbGw9IiNCMEJFQzUiIGQ9Ik0xMiwxN1Y4YzAtMC42LDAuNC0xLDEtMWgyMmMwLjYsMCwxLDAuNCwxLDF2OUgxMnoiLz4mI3hhOyAgICA8cmVjdCB4PSIxMiIgeT0iMTkiIGZpbGw9IiNCMEJFQzUiIHdpZHRoPSIyNCIgaGVpZ2h0PSIxMCIvPiYjeGE7ICAgIDxwYXRoIGZpbGw9IiNCMEJFQzUiIGQ9Ik0xMiw0MHYtOWgyNHY5YzAsMC42LTAuNCwxLTEsMUgxM0MxMi40LDQxLDEyLDQwLjYsMTIsNDB6Ii8+JiN4YTsgICAgPHJlY3QgeD0iMjAiIHk9IjExIiBmaWxsPSIjNTQ2RTdBIiB3aWR0aD0iOCIgaGVpZ2h0PSIyIi8+JiN4YTsgICAgPHJlY3QgeD0iMjAiIHk9IjIzIiBmaWxsPSIjNTQ2RTdBIiB3aWR0aD0iOCIgaGVpZ2h0PSIyIi8+JiN4YTsgICAgPHJlY3QgeD0iMjAiIHk9IjM1IiBmaWxsPSIjNTQ2RTdBIiB3aWR0aD0iOCIgaGVpZ2h0PSIyIi8+JiN4YTs8L3N2Zz4=;" parent="1" vertex="1">
          <mxGeometry x="79" y="290" width="48" height="48" as="geometry" />
        </mxCell>
        <mxCell id="vN4Nr_NYxk7D2PVNXBaq-27" value="PVE 1" style="shape=image;verticalLabelPosition=bottom;verticalAlign=top;imageAspect=0;aspect=fixed;image=data:image/svg+xml,PHN2ZyB4bWxucz0iaHR0cDovL3d3dy53My5vcmcvMjAwMC9zdmciIHZlcnNpb249IjEiIHZpZXdCb3g9IjAgMCA0OCA0OCIgZW5hYmxlLWJhY2tncm91bmQ9Im5ldyAwIDAgNDggNDgiPiYjeGE7ICAgIDxwYXRoIGZpbGw9IiNCRjM2MEMiIGQ9Ik00MS4yLDVoLTcuM0wzMiw0M2gxMUw0MS4yLDV6Ii8+JiN4YTsgICAgPHBhdGggZmlsbD0iI0U2NEExOSIgZD0iTTMzLDIzaC00di02bC0xMiw2di02TDUsMjN2MjBoMjhWMjN6Ii8+JiN4YTsgICAgPHJlY3QgeD0iOSIgeT0iMjciIGZpbGw9IiNGRkMxMDciIHdpZHRoPSI0IiBoZWlnaHQ9IjQiLz4mI3hhOyAgICA8cmVjdCB4PSIxNyIgeT0iMjciIGZpbGw9IiNGRkMxMDciIHdpZHRoPSI0IiBoZWlnaHQ9IjQiLz4mI3hhOyAgICA8cmVjdCB4PSIyNSIgeT0iMjciIGZpbGw9IiNGRkMxMDciIHdpZHRoPSI0IiBoZWlnaHQ9IjQiLz4mI3hhOyAgICA8cmVjdCB4PSI5IiB5PSIzNSIgZmlsbD0iI0ZGQzEwNyIgd2lkdGg9IjQiIGhlaWdodD0iNCIvPiYjeGE7ICAgIDxyZWN0IHg9IjE3IiB5PSIzNSIgZmlsbD0iI0ZGQzEwNyIgd2lkdGg9IjQiIGhlaWdodD0iNCIvPiYjeGE7ICAgIDxyZWN0IHg9IjI1IiB5PSIzNSIgZmlsbD0iI0ZGQzEwNyIgd2lkdGg9IjQiIGhlaWdodD0iNCIvPiYjeGE7PC9zdmc+;" parent="1" vertex="1">
          <mxGeometry x="79" y="190" width="48" height="48" as="geometry" />
        </mxCell>
        <mxCell id="vN4Nr_NYxk7D2PVNXBaq-28" value="PBS 1" style="shape=image;verticalLabelPosition=bottom;verticalAlign=top;imageAspect=0;aspect=fixed;image=data:image/svg+xml,PHN2ZyB4bWxucz0iaHR0cDovL3d3dy53My5vcmcvMjAwMC9zdmciIHZlcnNpb249IjEiIHZpZXdCb3g9IjAgMCA0OCA0OCIgZW5hYmxlLWJhY2tncm91bmQ9Im5ldyAwIDAgNDggNDgiPiYjeGE7ICAgIDxnIGZpbGw9IiNEMUM0RTkiPiYjeGE7ICAgICAgICA8cGF0aCBkPSJNMzgsN0gxMEM4LjksNyw4LDcuOSw4LDl2NmMwLDEuMSwwLjksMiwyLDJoMjhjMS4xLDAsMi0wLjksMi0yVjlDNDAsNy45LDM5LjEsNywzOCw3eiIvPiYjeGE7ICAgICAgICA8cGF0aCBkPSJNMzgsMTlIMTBjLTEuMSwwLTIsMC45LTIsMnY2YzAsMS4xLDAuOSwyLDIsMmgyOGMxLjEsMCwyLTAuOSwyLTJ2LTZDNDAsMTkuOSwzOS4xLDE5LDM4LDE5eiIvPiYjeGE7ICAgICAgICA8cGF0aCBkPSJNMzgsMzFIMTBjLTEuMSwwLTIsMC45LTIsMnY2YzAsMS4xLDAuOSwyLDIsMmgyOGMxLjEsMCwyLTAuOSwyLTJ2LTZDNDAsMzEuOSwzOS4xLDMxLDM4LDMxeiIvPiYjeGE7ICAgIDwvZz4mI3hhOzwvc3ZnPg==;" parent="1" vertex="1">
          <mxGeometry x="200" y="192" width="48" height="48" as="geometry" />
        </mxCell>
        <mxCell id="QlMrqEwmd5EdoFTJDpi8-24" style="edgeStyle=orthogonalEdgeStyle;rounded=0;orthogonalLoop=1;jettySize=auto;html=1;" edge="1" parent="1" source="QlMrqEwmd5EdoFTJDpi8-21" target="vN4Nr_NYxk7D2PVNXBaq-4">
          <mxGeometry relative="1" as="geometry" />
        </mxCell>
        <mxCell id="QlMrqEwmd5EdoFTJDpi8-21" value="VLAN 40 - GUEST" style="whiteSpace=wrap;html=1;aspect=fixed;fillColor=none;strokeColor=#82b366;glass=0;rounded=0;fillStyle=hatch;" vertex="1" parent="1">
          <mxGeometry x="720" y="570" width="190" height="190" as="geometry" />
        </mxCell>
        <mxCell id="QlMrqEwmd5EdoFTJDpi8-23" style="edgeStyle=orthogonalEdgeStyle;rounded=0;orthogonalLoop=1;jettySize=auto;html=1;exitX=0.5;exitY=0;exitDx=0;exitDy=0;entryX=1;entryY=0.5;entryDx=0;entryDy=0;" edge="1" parent="1" source="QlMrqEwmd5EdoFTJDpi8-22" target="vN4Nr_NYxk7D2PVNXBaq-4">
          <mxGeometry relative="1" as="geometry" />
        </mxCell>
        <mxCell id="QlMrqEwmd5EdoFTJDpi8-22" value="VLAN 30 - LAN IOT" style="whiteSpace=wrap;html=1;aspect=fixed;fillColor=#ffe6cc;strokeColor=#d79b00;glass=0;rounded=0;fillStyle=hatch;" vertex="1" parent="1">
          <mxGeometry x="948" y="570" width="190" height="190" as="geometry" />
        </mxCell>
        <mxCell id="QlMrqEwmd5EdoFTJDpi8-26" value="NAS - MANAGEMENT" style="shape=image;verticalLabelPosition=bottom;verticalAlign=top;imageAspect=0;aspect=fixed;image=data:image/svg+xml,PHN2ZyB4bWxucz0iaHR0cDovL3d3dy53My5vcmcvMjAwMC9zdmciIHZlcnNpb249IjEiIHZpZXdCb3g9IjAgMCA0OCA0OCIgZW5hYmxlLWJhY2tncm91bmQ9Im5ldyAwIDAgNDggNDgiPiYjeGE7ICAgIDxyZWN0IHg9IjEyIiB5PSI0NCIgZmlsbD0iIzI2MzIzOCIgd2lkdGg9IjQiIGhlaWdodD0iMiIvPiYjeGE7ICAgIDxyZWN0IHg9IjMyIiB5PSI0NCIgZmlsbD0iIzI2MzIzOCIgd2lkdGg9IjQiIGhlaWdodD0iMiIvPiYjeGE7ICAgIDxwYXRoIGZpbGw9IiM2MDdEOEIiIGQ9Ik04LDQxVjdjMC0yLjIsMS44LTQsNC00aDI0YzIuMiwwLDQsMS44LDQsNHYzNGMwLDIuMi0xLjgsNC00LDRIMTJDOS44LDQ1LDgsNDMuMiw4LDQxeiIvPiYjeGE7ICAgIDxwYXRoIGZpbGw9IiNCMEJFQzUiIGQ9Ik0xMiwxN1Y4YzAtMC42LDAuNC0xLDEtMWgyMmMwLjYsMCwxLDAuNCwxLDF2OUgxMnoiLz4mI3hhOyAgICA8cmVjdCB4PSIxMiIgeT0iMTkiIGZpbGw9IiNCMEJFQzUiIHdpZHRoPSIyNCIgaGVpZ2h0PSIxMCIvPiYjeGE7ICAgIDxwYXRoIGZpbGw9IiNCMEJFQzUiIGQ9Ik0xMiw0MHYtOWgyNHY5YzAsMC42LTAuNCwxLTEsMUgxM0MxMi40LDQxLDEyLDQwLjYsMTIsNDB6Ii8+JiN4YTsgICAgPHJlY3QgeD0iMjAiIHk9IjExIiBmaWxsPSIjNTQ2RTdBIiB3aWR0aD0iOCIgaGVpZ2h0PSIyIi8+JiN4YTsgICAgPHJlY3QgeD0iMjAiIHk9IjIzIiBmaWxsPSIjNTQ2RTdBIiB3aWR0aD0iOCIgaGVpZ2h0PSIyIi8+JiN4YTsgICAgPHJlY3QgeD0iMjAiIHk9IjM1IiBmaWxsPSIjNTQ2RTdBIiB3aWR0aD0iOCIgaGVpZ2h0PSIyIi8+JiN4YTs8L3N2Zz4=;" vertex="1" parent="1">
          <mxGeometry x="127" y="617.5" width="48" height="48" as="geometry" />
        </mxCell>
        <mxCell id="QlMrqEwmd5EdoFTJDpi8-27" value="Procmox - Managment" style="shape=image;verticalLabelPosition=bottom;verticalAlign=top;imageAspect=0;aspect=fixed;image=data:image/svg+xml,PHN2ZyB4bWxucz0iaHR0cDovL3d3dy53My5vcmcvMjAwMC9zdmciIHZlcnNpb249IjEiIHZpZXdCb3g9IjAgMCA0OCA0OCIgZW5hYmxlLWJhY2tncm91bmQ9Im5ldyAwIDAgNDggNDgiPiYjeGE7ICAgIDxwYXRoIGZpbGw9IiNCRjM2MEMiIGQ9Ik00MS4yLDVoLTcuM0wzMiw0M2gxMUw0MS4yLDV6Ii8+JiN4YTsgICAgPHBhdGggZmlsbD0iI0U2NEExOSIgZD0iTTMzLDIzaC00di02bC0xMiw2di02TDUsMjN2MjBoMjhWMjN6Ii8+JiN4YTsgICAgPHJlY3QgeD0iOSIgeT0iMjciIGZpbGw9IiNGRkMxMDciIHdpZHRoPSI0IiBoZWlnaHQ9IjQiLz4mI3hhOyAgICA8cmVjdCB4PSIxNyIgeT0iMjciIGZpbGw9IiNGRkMxMDciIHdpZHRoPSI0IiBoZWlnaHQ9IjQiLz4mI3hhOyAgICA8cmVjdCB4PSIyNSIgeT0iMjciIGZpbGw9IiNGRkMxMDciIHdpZHRoPSI0IiBoZWlnaHQ9IjQiLz4mI3hhOyAgICA8cmVjdCB4PSI5IiB5PSIzNSIgZmlsbD0iI0ZGQzEwNyIgd2lkdGg9IjQiIGhlaWdodD0iNCIvPiYjeGE7ICAgIDxyZWN0IHg9IjE3IiB5PSIzNSIgZmlsbD0iI0ZGQzEwNyIgd2lkdGg9IjQiIGhlaWdodD0iNCIvPiYjeGE7ICAgIDxyZWN0IHg9IjI1IiB5PSIzNSIgZmlsbD0iI0ZGQzEwNyIgd2lkdGg9IjQiIGhlaWdodD0iNCIvPiYjeGE7PC9zdmc+;" vertex="1" parent="1">
          <mxGeometry x="120" y="680" width="48" height="48" as="geometry" />
        </mxCell>
        <mxCell id="QlMrqEwmd5EdoFTJDpi8-31" style="edgeStyle=orthogonalEdgeStyle;rounded=0;orthogonalLoop=1;jettySize=auto;html=1;" edge="1" parent="1" source="QlMrqEwmd5EdoFTJDpi8-30" target="vN4Nr_NYxk7D2PVNXBaq-4">
          <mxGeometry relative="1" as="geometry" />
        </mxCell>
        <mxCell id="QlMrqEwmd5EdoFTJDpi8-30" value="ADGUARD&lt;br&gt;FROM ALL VLAN" style="image;aspect=fixed;html=1;points=[];align=center;fontSize=12;image=img/lib/azure2/networking/Azure_Firewall_Manager.svg;" vertex="1" parent="1">
          <mxGeometry x="421" y="369" width="70" height="60" as="geometry" />
        </mxCell>
        <mxCell id="QlMrqEwmd5EdoFTJDpi8-37" style="edgeStyle=orthogonalEdgeStyle;rounded=0;orthogonalLoop=1;jettySize=auto;html=1;exitX=0.75;exitY=0;exitDx=0;exitDy=0;entryX=-0.008;entryY=0.523;entryDx=0;entryDy=0;entryPerimeter=0;" edge="1" parent="1" source="QlMrqEwmd5EdoFTJDpi8-25" target="QlMrqEwmd5EdoFTJDpi8-30">
          <mxGeometry relative="1" as="geometry" />
        </mxCell>
        <mxCell id="QlMrqEwmd5EdoFTJDpi8-38" value="&lt;p class=&quot;whitespace-pre-wrap break-words&quot;&gt;Maintenant, récapitulons les optimisations et les règles de firewall :&lt;/p&gt;&lt;br/&gt;&lt;ol depth=&quot;0&quot; class=&quot;-mt-1 list-decimal space-y-2 pl-8&quot;&gt;&lt;br/&gt;&lt;li class=&quot;whitespace-normal break-words&quot;&gt;Optimisations réseau :&lt;br/&gt;a) Segmentation VLAN :&lt;br/&gt;&lt;ul depth=&quot;1&quot; class=&quot;-mt-1 list-disc space-y-2 pl-8&quot;&gt;&lt;br/&gt;&lt;li class=&quot;whitespace-normal break-words&quot;&gt;VLAN 10 (LAN) : Réseau principal pour les appareils personnels et la gestion&lt;/li&gt;&lt;br/&gt;&lt;li class=&quot;whitespace-normal break-words&quot;&gt;VLAN 20 (LAN-VM) : Réseau dédié pour les VMs&lt;/li&gt;&lt;br/&gt;&lt;li class=&quot;whitespace-normal break-words&quot;&gt;VLAN 30 (LAN-IOT) : Réseau isolé pour les appareils IoT&lt;/li&gt;&lt;br/&gt;&lt;li class=&quot;whitespace-normal break-words&quot;&gt;VLAN 40 (LAN-GUEST) : Réseau invité isolé&lt;/li&gt;&lt;br/&gt;&lt;/ul&gt;&lt;br/&gt;b) Double interface Proxmox :&lt;br/&gt;&lt;ul depth=&quot;1&quot; class=&quot;-mt-1 list-disc space-y-2 pl-8&quot;&gt;&lt;br/&gt;&lt;li class=&quot;whitespace-normal break-words&quot;&gt;Interface 1 : Gestion Proxmox (VLAN 10)&lt;/li&gt;&lt;br/&gt;&lt;li class=&quot;whitespace-normal break-words&quot;&gt;Interface 2 : Trafic VM (VLAN 20)&lt;/li&gt;&lt;br/&gt;&lt;/ul&gt;&lt;br/&gt;c) NAS optimisé :&lt;br/&gt;&lt;ul depth=&quot;1&quot; class=&quot;-mt-1 list-disc space-y-2 pl-8&quot;&gt;&lt;br/&gt;&lt;li class=&quot;whitespace-normal break-words&quot;&gt;Placé dans VLAN 10 pour un accès facile&lt;/li&gt;&lt;br/&gt;&lt;li class=&quot;whitespace-normal break-words&quot;&gt;Configuration RAID 5 avec SSDs pour performance et redondance&lt;/li&gt;&lt;br/&gt;&lt;/ul&gt;&lt;br/&gt;d) AdGuard comme serveur DNS centralisé :&lt;br/&gt;&lt;ul depth=&quot;1&quot; class=&quot;-mt-1 list-disc space-y-2 pl-8&quot;&gt;&lt;br/&gt;&lt;li class=&quot;whitespace-normal break-words&quot;&gt;Placé dans VLAN 20&lt;/li&gt;&lt;br/&gt;&lt;li class=&quot;whitespace-normal break-words&quot;&gt;Accessible depuis tous les VLANs pour le filtrage DNS&lt;/li&gt;&lt;br/&gt;&lt;/ul&gt;&lt;br/&gt;&lt;/li&gt;&lt;br/&gt;&lt;li class=&quot;whitespace-normal break-words&quot;&gt;Règles de firewall :&lt;br/&gt;a) Règle &quot;Internet_Access&quot; :&lt;br/&gt;&lt;ul depth=&quot;1&quot; class=&quot;-mt-1 list-disc space-y-2 pl-8&quot;&gt;&lt;br/&gt;&lt;li class=&quot;whitespace-normal break-words&quot;&gt;Source : VLAN 10, VLAN 20&lt;/li&gt;&lt;br/&gt;&lt;li class=&quot;whitespace-normal break-words&quot;&gt;Destination : Internet&lt;/li&gt;&lt;br/&gt;&lt;li class=&quot;whitespace-normal break-words&quot;&gt;Action : Allow&lt;/li&gt;&lt;br/&gt;&lt;li class=&quot;whitespace-normal break-words&quot;&gt;Commentaire : Accès Internet complet pour LAN et VMs&lt;/li&gt;&lt;br/&gt;&lt;/ul&gt;&lt;br/&gt;b) Règle &quot;IoT_Limited_Internet&quot; :&lt;br/&gt;&lt;ul depth=&quot;1&quot; class=&quot;-mt-1 list-disc space-y-2 pl-8&quot;&gt;&lt;br/&gt;&lt;li class=&quot;whitespace-normal break-words&quot;&gt;Source : VLAN 30&lt;/li&gt;&lt;br/&gt;&lt;li class=&quot;whitespace-normal break-words&quot;&gt;Destination : Internet&lt;/li&gt;&lt;br/&gt;&lt;li class=&quot;whitespace-normal break-words&quot;&gt;Ports : 80, 443, 123 (NTP)&lt;/li&gt;&lt;br/&gt;&lt;li class=&quot;whitespace-normal break-words&quot;&gt;Action : Allow&lt;/li&gt;&lt;br/&gt;&lt;li class=&quot;whitespace-normal break-words&quot;&gt;Commentaire : Accès Internet limité pour IoT&lt;/li&gt;&lt;br/&gt;&lt;/ul&gt;&lt;br/&gt;c) Règle &quot;Guest_Limited_Internet&quot; :&lt;br/&gt;&lt;ul depth=&quot;1&quot; class=&quot;-mt-1 list-disc space-y-2 pl-8&quot;&gt;&lt;br/&gt;&lt;li class=&quot;whitespace-normal break-words&quot;&gt;Source : VLAN 40&lt;/li&gt;&lt;br/&gt;&lt;li class=&quot;whitespace-normal break-words&quot;&gt;Destination : Internet&lt;/li&gt;&lt;br/&gt;&lt;li class=&quot;whitespace-normal break-words&quot;&gt;Ports : 80, 443, 123 (NTP)&lt;/li&gt;&lt;br/&gt;&lt;li class=&quot;whitespace-normal break-words&quot;&gt;Action : Allow&lt;/li&gt;&lt;br/&gt;&lt;li class=&quot;whitespace-normal break-words&quot;&gt;Commentaire : Accès Internet limité pour invités&lt;/li&gt;&lt;br/&gt;&lt;/ul&gt;&lt;br/&gt;d) Règle &quot;Inter_VLAN_Access&quot; :&lt;br/&gt;&lt;ul depth=&quot;1&quot; class=&quot;-mt-1 list-disc space-y-2 pl-8&quot;&gt;&lt;br/&gt;&lt;li class=&quot;whitespace-normal break-words&quot;&gt;Source : VLAN 10&lt;/li&gt;&lt;br/&gt;&lt;li class=&quot;whitespace-normal break-words&quot;&gt;Destination : VLAN 20, VLAN 30, VLAN 40&lt;/li&gt;&lt;br/&gt;&lt;li class=&quot;whitespace-normal break-words&quot;&gt;Action : Allow&lt;/li&gt;&lt;br/&gt;&lt;li class=&quot;whitespace-normal break-words&quot;&gt;Commentaire : Accès du LAN vers autres VLANs&lt;/li&gt;&lt;br/&gt;&lt;/ul&gt;&lt;br/&gt;e) Règle &quot;VM_to_IoT_Guest&quot; :&lt;br/&gt;&lt;ul depth=&quot;1&quot; class=&quot;-mt-1 list-disc space-y-2 pl-8&quot;&gt;&lt;br/&gt;&lt;li class=&quot;whitespace-normal break-words&quot;&gt;Source : VLAN 20&lt;/li&gt;&lt;br/&gt;&lt;li class=&quot;whitespace-normal break-words&quot;&gt;Destination : VLAN 30, VLAN 40&lt;/li&gt;&lt;br/&gt;&lt;li class=&quot;whitespace-normal break-words&quot;&gt;Action : Allow&lt;/li&gt;&lt;br/&gt;&lt;li class=&quot;whitespace-normal break-words&quot;&gt;Commentaire : Accès des VMs vers IoT et Guest&lt;/li&gt;&lt;br/&gt;&lt;/ul&gt;&lt;br/&gt;f) Règle &quot;DNS_to_AdGuard&quot; :&lt;br/&gt;&lt;ul depth=&quot;1&quot; class=&quot;-mt-1 list-disc space-y-2 pl-8&quot;&gt;&lt;br/&gt;&lt;li class=&quot;whitespace-normal break-words&quot;&gt;Source : All VLANs&lt;/li&gt;&lt;br/&gt;&lt;li class=&quot;whitespace-normal break-words&quot;&gt;Destination : AdGuard (VLAN 20)&lt;/li&gt;&lt;br/&gt;&lt;li class=&quot;whitespace-normal break-words&quot;&gt;Port : 53 (DNS)&lt;/li&gt;&lt;br/&gt;&lt;li class=&quot;whitespace-normal break-words&quot;&gt;Action : Allow&lt;/li&gt;&lt;br/&gt;&lt;li class=&quot;whitespace-normal break-words&quot;&gt;Commentaire : Redirection DNS vers AdGuard&lt;/li&gt;&lt;br/&gt;&lt;/ul&gt;&lt;br/&gt;g) Règle &quot;Block_Direct_DNS&quot; :&lt;br/&gt;&lt;ul depth=&quot;1&quot; class=&quot;-mt-1 list-disc space-y-2 pl-8&quot;&gt;&lt;br/&gt;&lt;li class=&quot;whitespace-normal break-words&quot;&gt;Source : All VLANs except VLAN 20&lt;/li&gt;&lt;br/&gt;&lt;li class=&quot;whitespace-normal break-words&quot;&gt;Destination : Internet&lt;/li&gt;&lt;br/&gt;&lt;li class=&quot;whitespace-normal break-words&quot;&gt;Port : 53 (DNS)&lt;/li&gt;&lt;br/&gt;&lt;li class=&quot;whitespace-normal break-words&quot;&gt;Action : Block&lt;/li&gt;&lt;br/&gt;&lt;li class=&quot;whitespace-normal break-words&quot;&gt;Commentaire : Bloquer DNS direct vers Internet&lt;/li&gt;&lt;br/&gt;&lt;/ul&gt;&lt;br/&gt;h) Règle &quot;Proxmox_Management&quot; :&lt;br/&gt;&lt;ul depth=&quot;1&quot; class=&quot;-mt-1 list-disc space-y-2 pl-8&quot;&gt;&lt;br/&gt;&lt;li class=&quot;whitespace-normal break-words&quot;&gt;Source : VLAN 10&lt;/li&gt;&lt;br/&gt;&lt;li class=&quot;whitespace-normal break-words&quot;&gt;Destination : Proxmox Management Interface&lt;/li&gt;&lt;br/&gt;&lt;li class=&quot;whitespace-normal break-words&quot;&gt;Ports : 8006 (HTTPS), 22 (SSH)&lt;/li&gt;&lt;br/&gt;&lt;li class=&quot;whitespace-normal break-words&quot;&gt;Action : Allow&lt;/li&gt;&lt;br/&gt;&lt;li class=&quot;whitespace-normal break-words&quot;&gt;Commentaire : Accès gestion Proxmox&lt;/li&gt;&lt;br/&gt;&lt;/ul&gt;&lt;br/&gt;i) Règle &quot;Inter_Proxmox_Communication&quot; :&lt;br/&gt;&lt;ul depth=&quot;1&quot; class=&quot;-mt-1 list-disc space-y-2 pl-8&quot;&gt;&lt;br/&gt;&lt;li class=&quot;whitespace-normal break-words&quot;&gt;Source : Proxmox Management Interface&lt;/li&gt;&lt;br/&gt;&lt;li class=&quot;whitespace-normal break-words&quot;&gt;Destination : Proxmox VM Network&lt;/li&gt;&lt;br/&gt;&lt;li class=&quot;whitespace-normal break-words&quot;&gt;Action : Allow&lt;/li&gt;&lt;br/&gt;&lt;li class=&quot;whitespace-normal break-words&quot;&gt;Commentaire : Communication entre interfaces Proxmox&lt;/li&gt;&lt;br/&gt;&lt;/ul&gt;&lt;br/&gt;j) Règle &quot;Default_Deny&quot; :&lt;br/&gt;&lt;ul depth=&quot;1&quot; class=&quot;-mt-1 list-disc space-y-2 pl-8&quot;&gt;&lt;br/&gt;&lt;li class=&quot;whitespace-normal break-words&quot;&gt;Source : Any&lt;/li&gt;&lt;br/&gt;&lt;li class=&quot;whitespace-normal break-words&quot;&gt;Destination : Any&lt;/li&gt;&lt;br/&gt;&lt;li class=&quot;whitespace-normal break-words&quot;&gt;Action : Deny&lt;/li&gt;&lt;br/&gt;&lt;li class=&quot;whitespace-normal break-words&quot;&gt;Commentaire : Bloquer tout trafic non explicitement autorisé&lt;/li&gt;&lt;br/&gt;&lt;/ul&gt;&lt;br/&gt;&lt;/li&gt;&lt;br/&gt;&lt;li class=&quot;whitespace-normal break-words&quot;&gt;Optimisations supplémentaires :&lt;br/&gt;&lt;ul depth=&quot;1&quot; class=&quot;-mt-1 list-disc space-y-2 pl-8&quot;&gt;&lt;br/&gt;&lt;li class=&quot;whitespace-normal break-words&quot;&gt;Activation du Jumbo Frames (MTU 9000) sur l&#39;interface VM de Proxmox et le switch&lt;/li&gt;&lt;br/&gt;&lt;li class=&quot;whitespace-normal break-words&quot;&gt;Configuration de VLANs privés (PVLAN) sur le switch pour isoler les VMs&lt;/li&gt;&lt;br/&gt;&lt;li class=&quot;whitespace-normal break-words&quot;&gt;Mise en place d&#39;un système de monitoring (ex: Prometheus + Grafana)&lt;/li&gt;&lt;br/&gt;&lt;li class=&quot;whitespace-normal break-words&quot;&gt;Configuration d&#39;un VPN pour l&#39;accès à distance sécurisé&lt;/li&gt;&lt;br/&gt;&lt;li class=&quot;whitespace-normal break-words&quot;&gt;Implémentation d&#39;une stratégie de sauvegarde robuste (règle 3-2-1)&lt;/li&gt;&lt;br/&gt;&lt;li class=&quot;whitespace-normal break-words&quot;&gt;Utilisation de certificats SSL pour sécuriser les connexions internes&lt;/li&gt;&lt;/ul&gt;&lt;/li&gt;&lt;/ol&gt;" style="text;html=1;align=center;verticalAlign=middle;resizable=0;points=[];autosize=1;strokeColor=none;fillColor=none;" vertex="1" parent="1">
          <mxGeometry y="830" width="550" height="2540" as="geometry" />
        </mxCell>
      </root>
    </mxGraphModel>
  </diagram>
</mxfile>
